# xmcd
#
# Track frame offsets: 
#        183
#        12140
#        32255
#        49583
#        62120
#        76768
#        91923
#        104133
#        122150
#        136980
#        149485
#        166358
#
# Disc length: 2444 seconds
#
# Revision: 1
# Processed by: cddbd v1.5.2PL0 Copyright (c) Steve Scherf et al.
# Submitted via: ExactAudioCopy v0.99pb3
#
DISCID=99098a0c
DTITLE=Milva - italienische Lieder - MilvA
DYEAR=1900
DGENRE=Blues
TTITLE0=La Filanda
TTITLE1=Monica Dele Bambola
TTITLE2=La Pinura
TTITLE3=Uno Dei Tanti
TTITLE4=Aveva Un Cuore Grande
TTITLE5=Mediterraneo
TTITLE6=E'per Colpa Tua
TTITLE7=Sono Matta Da Legare
TTITLE8=L'immensita
TTITLE9=Bella Ciao
TTITLE10=Sola
TTITLE11=Viva Te
EXTD=
EXTT0=
EXTT1=
EXTT2=
EXTT3=
EXTT4=
EXTT5=
EXTT6=
EXTT7=
EXTT8=
EXTT9=
EXTT10=
EXTT11=
PLAYORDER=
